# Blender 4.0.2
# www.blender.org
mtllib SM_QuarterCylinder.mtl
o Cylinder
v 0.500000 0.000000 0.000000
v 0.500000 1.000000 0.000000
v 0.490393 0.000000 0.097545
v 0.490393 1.000000 0.097545
v 0.461940 0.000000 0.191342
v 0.461940 1.000000 0.191342
v 0.415735 0.000000 0.277785
v 0.415735 1.000000 0.277785
v 0.353553 0.000000 0.353553
v 0.353553 1.000000 0.353553
v 0.277785 0.000000 0.415735
v 0.277785 1.000000 0.415735
v 0.191342 0.000000 0.461940
v 0.191342 1.000000 0.461940
v 0.097545 0.000000 0.490393
v 0.097545 1.000000 0.490393
v 0.000000 0.000000 0.500000
v 0.000000 1.000000 0.500000
v 0.000000 1.000000 0.000000
v 0.000000 0.000000 0.000000
vn 0.9952 -0.0000 0.0980
vn 0.9569 -0.0000 0.2903
vn 0.8819 -0.0000 0.4714
vn 0.7730 -0.0000 0.6344
vn 0.6344 -0.0000 0.7730
vn 0.4714 -0.0000 0.8819
vn 0.2903 -0.0000 0.9569
vn 0.0980 -0.0000 0.9952
vn -0.0000 1.0000 -0.0000
vn -0.0000 -1.0000 -0.0000
vn -0.0000 -0.0000 -1.0000
vn -1.0000 -0.0000 -0.0000
vt 0.750000 0.500000
vt 0.750000 1.000000
vt 0.718750 1.000000
vt 0.718750 0.500000
vt 0.687500 1.000000
vt 0.687500 0.500000
vt 0.656250 1.000000
vt 0.656250 0.500000
vt 0.625000 1.000000
vt 0.625000 0.500000
vt 0.593750 1.000000
vt 0.593750 0.500000
vt 0.562500 1.000000
vt 0.562500 0.500000
vt 0.531250 1.000000
vt 0.531250 0.500000
vt 0.500000 0.500000
vt 0.500000 1.000000
vt 0.296822 0.014612
vt 0.341844 0.028269
vt 0.383337 0.050447
vt 0.419706 0.080294
vt 0.449553 0.116663
vt 0.471731 0.158156
vt 0.485388 0.203178
vt 0.490000 0.250000
vt 0.250000 0.250000
vt 0.250000 0.010000
vt 0.750000 0.250000
vt 0.990000 0.250000
vt 0.985388 0.203178
vt 0.971731 0.158156
vt 0.949553 0.116663
vt 0.919706 0.080294
vt 0.883337 0.050447
vt 0.841844 0.028269
vt 0.796822 0.014612
vt 0.750000 0.010000
vt 0.582276 0.812500
vt 0.457276 0.812500
vt 0.457276 0.875000
vt 0.582276 0.875000
vt 0.457276 0.687500
vt 0.582276 0.687500
vt 0.582276 0.625000
vt 0.457276 0.625000
s 0
f 1/1/1 2/2/1 4/3/1 3/4/1
f 3/4/2 4/3/2 6/5/2 5/6/2
f 5/6/3 6/5/3 8/7/3 7/8/3
f 7/8/4 8/7/4 10/9/4 9/10/4
f 9/10/5 10/9/5 12/11/5 11/12/5
f 11/12/6 12/11/6 14/13/6 13/14/6
f 13/14/7 14/13/7 16/15/7 15/16/7
f 17/17/8 15/16/8 16/15/8 18/18/8
f 16/19/9 14/20/9 12/21/9 10/22/9 8/23/9 6/24/9 4/25/9 2/26/9 19/27/9 18/28/9
f 20/29/10 1/30/10 3/31/10 5/32/10 7/33/10 9/34/10 11/35/10 13/36/10 15/37/10 17/38/10
f 2/39/11 1/40/11 20/41/11 19/42/11
f 17/43/12 18/44/12 19/45/12 20/46/12
